<svg width="18" height="19" viewBox="0 0 18 19" fill="none" xmlns="http://www.w3.org/2000/svg">
<path d="M1 0.660624C0.539763 0.660624 0.166667 1.03372 0.166667 1.49396C0.166667 1.95419 0.539763 2.32729 1 2.32729V0.660624ZM2.91045 1.49396L3.7148 1.27611C3.61642 0.912859 3.28679 0.660624 2.91045 0.660624V1.49396ZM6.01493 12.9566L5.21057 13.1745C5.31913 13.5753 5.70623 13.8351 6.11829 13.7835L6.01493 12.9566ZM15.5672 11.7626L15.6705 12.5895C16.0244 12.5453 16.311 12.2807 16.3832 11.9315L15.5672 11.7626ZM17 4.83724L17.8161 5.00608C17.8668 4.76065 17.8045 4.5054 17.6462 4.31106C17.4879 4.11671 17.2506 4.00391 17 4.00391V4.83724ZM3.81592 4.83724L3.01156 5.05509L3.81592 4.83724ZM1 2.32729H2.91045V0.660624H1V2.32729ZM6.11829 13.7835L15.6705 12.5895L15.4638 10.9357L5.91156 12.1298L6.11829 13.7835ZM16.3832 11.9315L17.8161 5.00608L16.184 4.6684L14.7511 11.5938L16.3832 11.9315ZM2.10609 1.7118L3.01156 5.05509L4.62028 4.6194L3.7148 1.27611L2.10609 1.7118ZM3.01156 5.05509L5.21057 13.1745L6.81928 12.7388L4.62028 4.6194L3.01156 5.05509ZM17 4.00391H3.81592V5.67058H17V4.00391ZM8.16667 16.0834C8.16667 16.3135 7.98012 16.5 7.75 16.5V18.1667C8.9006 18.1667 9.83333 17.2339 9.83333 16.0834H8.16667ZM7.75 16.5C7.51988 16.5 7.33333 16.3135 7.33333 16.0834H5.66667C5.66667 17.2339 6.59941 18.1667 7.75 18.1667V16.5ZM7.33333 16.0834C7.33333 15.8532 7.51988 15.6667 7.75 15.6667V14C6.59941 14 5.66667 14.9328 5.66667 16.0834H7.33333ZM7.75 15.6667C7.98012 15.6667 8.16667 15.8532 8.16667 16.0834H9.83333C9.83333 14.9328 8.9006 14 7.75 14V15.6667ZM14.8333 16.0834C14.8333 16.3135 14.6468 16.5 14.4167 16.5V18.1667C15.5673 18.1667 16.5 17.2339 16.5 16.0834H14.8333ZM14.4167 16.5C14.1866 16.5 14 16.3135 14 16.0834H12.3333C12.3333 17.2339 13.2661 18.1667 14.4167 18.1667V16.5ZM14 16.0834C14 15.8532 14.1866 15.6667 14.4167 15.6667V14C13.2661 14 12.3333 14.9328 12.3333 16.0834H14ZM14.4167 15.6667C14.6468 15.6667 14.8333 15.8532 14.8333 16.0834H16.5C16.5 14.9328 15.5673 14 14.4167 14V15.6667Z" fill="white"/>
</svg>
