<svg width="209" height="33" viewBox="0 0 209 33" fill="none" xmlns="http://www.w3.org/2000/svg">
<rect width="209" height="33" rx="16.5" fill="#F7F7F7"/>
<path opacity="0.9" d="M15.7188 9L19.8828 21.5937H20.0469L24.2031 9H27.3906L21.75 25H18.1719L12.5391 9H15.7188ZM33.3965 25.2344C32.1934 25.2344 31.1543 24.9844 30.2793 24.4844C29.4095 23.9792 28.7402 23.2656 28.2715 22.3437C27.8027 21.4167 27.5684 20.3255 27.5684 19.0703C27.5684 17.8359 27.8027 16.7526 28.2715 15.8203C28.7454 14.8828 29.4069 14.1536 30.2559 13.6328C31.1048 13.1068 32.1022 12.8438 33.248 12.8438C33.9876 12.8438 34.6855 12.9635 35.3418 13.2031C36.0033 13.4375 36.5866 13.8021 37.0918 14.2969C37.6022 14.7917 38.0033 15.4219 38.2949 16.1875C38.5866 16.9479 38.7324 17.8542 38.7324 18.9062V19.7734H28.8965V17.8672H36.0215C36.0163 17.3255 35.8991 16.8437 35.6699 16.4219C35.4408 15.9948 35.1204 15.6589 34.709 15.4141C34.3027 15.1693 33.8288 15.0469 33.2871 15.0469C32.709 15.0469 32.2012 15.1875 31.7637 15.4687C31.3262 15.7448 30.985 16.1094 30.7402 16.5625C30.5007 17.0104 30.3783 17.5026 30.373 18.0391V19.7031C30.373 20.401 30.5007 21 30.7559 21.5C31.0111 21.9948 31.3678 22.375 31.8262 22.6406C32.2845 22.901 32.821 23.0312 33.4355 23.0312C33.847 23.0312 34.2194 22.974 34.5527 22.8594C34.8861 22.7396 35.1751 22.5651 35.4199 22.3359C35.6647 22.1068 35.8496 21.8229 35.9746 21.4844L38.6152 21.7812C38.4486 22.4792 38.1309 23.0885 37.6621 23.6094C37.1986 24.125 36.6048 24.526 35.8809 24.8125C35.1569 25.0937 34.3288 25.2344 33.3965 25.2344ZM46.3438 29.75C45.3281 29.75 44.4557 29.612 43.7266 29.3359C42.9974 29.0651 42.4115 28.7005 41.9688 28.2422C41.526 27.7839 41.2188 27.276 41.0469 26.7188L43.5938 26.1016C43.7083 26.3359 43.875 26.5677 44.0938 26.7969C44.3125 27.0313 44.6068 27.224 44.9766 27.375C45.3516 27.5313 45.8229 27.6094 46.3906 27.6094C47.1927 27.6094 47.8568 27.4141 48.3828 27.0234C48.9089 26.638 49.1719 26.0026 49.1719 25.1172V22.8437H49.0313C48.8854 23.1354 48.6719 23.4349 48.3906 23.7422C48.1146 24.0495 47.7474 24.3073 47.2891 24.5156C46.8359 24.724 46.2656 24.8281 45.5781 24.8281C44.6562 24.8281 43.8203 24.612 43.0703 24.1797C42.3255 23.7422 41.7318 23.0911 41.2891 22.2266C40.8516 21.3568 40.6328 20.2682 40.6328 18.9609C40.6328 17.6432 40.8516 16.5312 41.2891 15.625C41.7318 14.7135 42.3281 14.0234 43.0781 13.5547C43.8281 13.0807 44.6641 12.8438 45.5859 12.8438C46.2891 12.8438 46.8672 12.9635 47.3203 13.2031C47.7786 13.4375 48.1432 13.7214 48.4141 14.0547C48.6849 14.3828 48.8906 14.6927 49.0313 14.9844H49.1875V13H51.9766V25.1953C51.9766 26.2214 51.7318 27.0703 51.2422 27.7422C50.7526 28.4141 50.0833 28.9167 49.2344 29.25C48.3854 29.5833 47.4219 29.75 46.3438 29.75ZM46.3672 22.6094C46.9661 22.6094 47.4766 22.4635 47.8984 22.1719C48.3203 21.8802 48.6406 21.4609 48.8594 20.9141C49.0781 20.3672 49.1875 19.7109 49.1875 18.9453C49.1875 18.1901 49.0781 17.5286 48.8594 16.9609C48.6458 16.3932 48.3281 15.9531 47.9063 15.6406C47.4896 15.3229 46.9766 15.1641 46.3672 15.1641C45.737 15.1641 45.2109 15.3281 44.7891 15.6562C44.3672 15.9844 44.0495 16.4349 43.8359 17.0078C43.6224 17.5755 43.5156 18.2214 43.5156 18.9453C43.5156 19.6797 43.6224 20.3229 43.8359 20.875C44.0547 21.4219 44.375 21.849 44.7969 22.1562C45.224 22.4583 45.7474 22.6094 46.3672 22.6094ZM60.1875 25.2344C58.9844 25.2344 57.9453 24.9844 57.0703 24.4844C56.2005 23.9792 55.5313 23.2656 55.0625 22.3437C54.5938 21.4167 54.3594 20.3255 54.3594 19.0703C54.3594 17.8359 54.5938 16.7526 55.0625 15.8203C55.5365 14.8828 56.1979 14.1536 57.0469 13.6328C57.8958 13.1068 58.8932 12.8438 60.0391 12.8438C60.7786 12.8438 61.4766 12.9635 62.1328 13.2031C62.7943 13.4375 63.3776 13.8021 63.8828 14.2969C64.3932 14.7917 64.7943 15.4219 65.0859 16.1875C65.3776 16.9479 65.5234 17.8542 65.5234 18.9062V19.7734H55.6875V17.8672H62.8125C62.8073 17.3255 62.6901 16.8437 62.4609 16.4219C62.2318 15.9948 61.9115 15.6589 61.5 15.4141C61.0938 15.1693 60.6198 15.0469 60.0781 15.0469C59.5 15.0469 58.9922 15.1875 58.5547 15.4687C58.1172 15.7448 57.776 16.1094 57.5313 16.5625C57.2917 17.0104 57.1693 17.5026 57.1641 18.0391V19.7031C57.1641 20.401 57.2917 21 57.5469 21.5C57.8021 21.9948 58.1589 22.375 58.6172 22.6406C59.0755 22.901 59.612 23.0312 60.2266 23.0312C60.638 23.0312 61.0104 22.974 61.3438 22.8594C61.6771 22.7396 61.9661 22.5651 62.2109 22.3359C62.4557 22.1068 62.6406 21.8229 62.7656 21.4844L65.4062 21.7812C65.2396 22.4792 64.9219 23.0885 64.4531 23.6094C63.9896 24.125 63.3958 24.526 62.6719 24.8125C61.9479 25.0937 61.1198 25.2344 60.1875 25.2344ZM73.9082 13V15.1875H67.0098V13H73.9082ZM68.7129 10.125H71.541V21.3906C71.541 21.7708 71.5983 22.0625 71.7129 22.2656C71.8327 22.4635 71.9889 22.599 72.1816 22.6719C72.3743 22.7448 72.5879 22.7812 72.8223 22.7812C72.9993 22.7812 73.1608 22.7682 73.3066 22.7422C73.4577 22.7161 73.5723 22.6927 73.6504 22.6719L74.127 24.8828C73.9759 24.9349 73.7598 24.9922 73.4785 25.0547C73.2025 25.1172 72.8639 25.1536 72.4629 25.1641C71.7546 25.1849 71.1165 25.0781 70.5488 24.8437C69.9811 24.6042 69.5306 24.2344 69.1973 23.7344C68.8691 23.2344 68.7077 22.6094 68.7129 21.8594V10.125ZM79.7266 25.2422C78.9661 25.2422 78.2813 25.1068 77.6719 24.8359C77.0677 24.5599 76.5885 24.1536 76.2344 23.6172C75.8854 23.0807 75.7109 22.4193 75.7109 21.6328C75.7109 20.9557 75.8359 20.3958 76.0859 19.9531C76.3359 19.5104 76.6771 19.1562 77.1094 18.8906C77.5417 18.625 78.0286 18.4245 78.5703 18.2891C79.1172 18.1484 79.6823 18.0469 80.2656 17.9844C80.9688 17.9115 81.5391 17.8464 81.9766 17.7891C82.4141 17.7266 82.7318 17.6328 82.9297 17.5078C83.1328 17.3776 83.2344 17.1771 83.2344 16.9062V16.8594C83.2344 16.2708 83.0599 15.8151 82.7109 15.4922C82.362 15.1693 81.8594 15.0078 81.2031 15.0078C80.5104 15.0078 79.9609 15.1589 79.5547 15.4609C79.1536 15.763 78.8828 16.1198 78.7422 16.5312L76.1016 16.1562C76.3099 15.4271 76.6536 14.8177 77.1328 14.3281C77.612 13.8333 78.1979 13.4635 78.8906 13.2187C79.5833 12.9688 80.349 12.8438 81.1875 12.8438C81.7656 12.8438 82.3411 12.9115 82.9141 13.0469C83.487 13.1823 84.0104 13.4062 84.4844 13.7187C84.9583 14.026 85.3385 14.4453 85.625 14.9766C85.9167 15.5078 86.0625 16.1719 86.0625 16.9687V25H83.3438V23.3516H83.25C83.0781 23.6849 82.8359 23.9974 82.5234 24.2891C82.2161 24.5755 81.8281 24.8073 81.3594 24.9844C80.8958 25.1563 80.3516 25.2422 79.7266 25.2422ZM80.4609 23.1641C81.0286 23.1641 81.5208 23.0521 81.9375 22.8281C82.3542 22.599 82.6745 22.2969 82.8984 21.9219C83.1276 21.5469 83.2422 21.138 83.2422 20.6953V19.2812C83.1536 19.3542 83.0026 19.4219 82.7891 19.4844C82.5807 19.5469 82.3464 19.6016 82.0859 19.6484C81.8255 19.6953 81.5677 19.737 81.3125 19.7734C81.0573 19.8099 80.8359 19.8411 80.6484 19.8672C80.2266 19.9245 79.849 20.0182 79.5156 20.1484C79.1823 20.2786 78.9193 20.4609 78.7266 20.6953C78.5339 20.9245 78.4375 21.2214 78.4375 21.5859C78.4375 22.1068 78.6276 22.5 79.0078 22.7656C79.388 23.0312 79.8724 23.1641 80.4609 23.1641ZM89.0312 25V9H91.8594V14.9844H91.9766C92.1224 14.6927 92.3281 14.3828 92.5938 14.0547C92.8594 13.7214 93.2188 13.4375 93.6719 13.2031C94.125 12.9635 94.7031 12.8438 95.4063 12.8438C96.3333 12.8438 97.1693 13.0807 97.9141 13.5547C98.6641 14.0234 99.2578 14.7187 99.6953 15.6406C100.138 16.5573 100.359 17.6823 100.359 19.0156C100.359 20.3333 100.143 21.4531 99.7109 22.375C99.2786 23.2969 98.6901 24 97.9453 24.4844C97.2005 24.9688 96.3568 25.2109 95.4141 25.2109C94.7266 25.2109 94.1563 25.0964 93.7031 24.8672C93.25 24.638 92.8854 24.362 92.6094 24.0391C92.3385 23.7109 92.1276 23.401 91.9766 23.1094H91.8125V25H89.0312ZM91.8047 19C91.8047 19.776 91.9141 20.4557 92.1328 21.0391C92.3568 21.6224 92.6771 22.0781 93.0938 22.4062C93.5156 22.7292 94.026 22.8906 94.625 22.8906C95.25 22.8906 95.7734 22.724 96.1953 22.3906C96.6172 22.0521 96.9349 21.5911 97.1484 21.0078C97.3672 20.4193 97.4766 19.75 97.4766 19C97.4766 18.2552 97.3698 17.5937 97.1563 17.0156C96.9427 16.4375 96.625 15.9844 96.2031 15.6562C95.7813 15.3281 95.2552 15.1641 94.625 15.1641C94.0208 15.1641 93.5078 15.3229 93.0859 15.6406C92.6641 15.9583 92.3438 16.4036 92.125 16.9766C91.9115 17.5495 91.8047 18.224 91.8047 19ZM105.592 9V25H102.764V9H105.592ZM113.812 25.2344C112.609 25.2344 111.57 24.9844 110.695 24.4844C109.826 23.9792 109.156 23.2656 108.688 22.3437C108.219 21.4167 107.984 20.3255 107.984 19.0703C107.984 17.8359 108.219 16.7526 108.688 15.8203C109.161 14.8828 109.823 14.1536 110.672 13.6328C111.521 13.1068 112.518 12.8438 113.664 12.8438C114.404 12.8438 115.102 12.9635 115.758 13.2031C116.419 13.4375 117.003 13.8021 117.508 14.2969C118.018 14.7917 118.419 15.4219 118.711 16.1875C119.003 16.9479 119.148 17.8542 119.148 18.9062V19.7734H109.313V17.8672H116.438C116.432 17.3255 116.315 16.8437 116.086 16.4219C115.857 15.9948 115.536 15.6589 115.125 15.4141C114.719 15.1693 114.245 15.0469 113.703 15.0469C113.125 15.0469 112.617 15.1875 112.18 15.4687C111.742 15.7448 111.401 16.1094 111.156 16.5625C110.917 17.0104 110.794 17.5026 110.789 18.0391V19.7031C110.789 20.401 110.917 21 111.172 21.5C111.427 21.9948 111.784 22.375 112.242 22.6406C112.701 22.901 113.237 23.0312 113.852 23.0312C114.263 23.0312 114.635 22.974 114.969 22.8594C115.302 22.7396 115.591 22.5651 115.836 22.3359C116.081 22.1068 116.266 21.8229 116.391 21.4844L119.031 21.7812C118.865 22.4792 118.547 23.0885 118.078 23.6094C117.615 24.125 117.021 24.526 116.297 24.8125C115.573 25.0937 114.745 25.2344 113.812 25.2344Z" fill="black"/>
<rect x="129" width="80" height="33" rx="16.5" fill="#54B46A"/>
<path d="M150.531 12.2756C150.455 11.6032 150.143 11.0824 149.594 10.7131C149.045 10.339 148.353 10.152 147.52 10.152C146.923 10.152 146.407 10.2467 145.972 10.4361C145.536 10.6207 145.197 10.8764 144.956 11.2031C144.719 11.5251 144.601 11.892 144.601 12.304C144.601 12.6496 144.681 12.9479 144.842 13.1989C145.008 13.4498 145.223 13.6605 145.489 13.831C145.759 13.9967 146.047 14.1364 146.355 14.25C146.663 14.3589 146.959 14.4489 147.243 14.5199L148.663 14.8892C149.127 15.0028 149.603 15.1567 150.091 15.3509C150.579 15.545 151.031 15.8007 151.447 16.1179C151.864 16.4351 152.2 16.8281 152.456 17.2969C152.716 17.7656 152.847 18.3267 152.847 18.9801C152.847 19.804 152.634 20.5355 152.207 21.1747C151.786 21.8139 151.173 22.3182 150.368 22.6875C149.568 23.0568 148.599 23.2415 147.463 23.2415C146.374 23.2415 145.432 23.0687 144.636 22.723C143.841 22.3774 143.218 21.8873 142.768 21.2528C142.319 20.6136 142.07 19.8561 142.023 18.9801H144.224C144.267 19.5057 144.438 19.9437 144.736 20.294C145.039 20.6397 145.425 20.8977 145.893 21.0682C146.367 21.2339 146.885 21.3168 147.449 21.3168C148.069 21.3168 148.621 21.2197 149.104 21.0256C149.591 20.8267 149.975 20.5521 150.254 20.2017C150.534 19.8466 150.673 19.4323 150.673 18.9588C150.673 18.5279 150.55 18.1752 150.304 17.9006C150.063 17.6259 149.733 17.3987 149.317 17.2188C148.905 17.0388 148.438 16.8802 147.918 16.7429L146.199 16.2741C145.034 15.9569 144.111 15.4905 143.429 14.875C142.752 14.2595 142.413 13.4451 142.413 12.4318C142.413 11.5937 142.641 10.8622 143.095 10.2372C143.55 9.61222 144.165 9.12689 144.942 8.78125C145.718 8.43087 146.594 8.25568 147.57 8.25568C148.554 8.25568 149.423 8.4285 150.176 8.77415C150.934 9.11979 151.53 9.59564 151.966 10.2017C152.402 10.803 152.629 11.4943 152.648 12.2756H150.531ZM155.469 23V8.45455H157.664V14.7756H164.915V8.45455H167.117V23H164.915V16.6577H157.664V23H155.469ZM182.948 15.7273C182.948 17.2803 182.664 18.6155 182.096 19.733C181.527 20.8456 180.748 21.7027 179.759 22.304C178.774 22.9006 177.654 23.1989 176.4 23.1989C175.14 23.1989 174.016 22.9006 173.026 22.304C172.041 21.7027 171.265 20.8433 170.696 19.7259C170.128 18.6084 169.844 17.2756 169.844 15.7273C169.844 14.1742 170.128 12.8414 170.696 11.7287C171.265 10.6113 172.041 9.75426 173.026 9.15767C174.016 8.55634 175.14 8.25568 176.4 8.25568C177.654 8.25568 178.774 8.55634 179.759 9.15767C180.748 9.75426 181.527 10.6113 182.096 11.7287C182.664 12.8414 182.948 14.1742 182.948 15.7273ZM180.775 15.7273C180.775 14.5436 180.583 13.5469 180.199 12.7372C179.82 11.9228 179.3 11.3073 178.637 10.8906C177.979 10.4692 177.233 10.2585 176.4 10.2585C175.561 10.2585 174.813 10.4692 174.155 10.8906C173.497 11.3073 172.976 11.9228 172.593 12.7372C172.214 13.5469 172.025 14.5436 172.025 15.7273C172.025 16.911 172.214 17.91 172.593 18.7244C172.976 19.5341 173.497 20.1496 174.155 20.571C174.813 20.9877 175.561 21.196 176.4 21.196C177.233 21.196 177.979 20.9877 178.637 20.571C179.3 20.1496 179.82 19.5341 180.199 18.7244C180.583 17.91 180.775 16.911 180.775 15.7273ZM185.684 23V8.45455H190.869C192 8.45455 192.938 8.66051 193.681 9.07244C194.424 9.48437 194.981 10.0478 195.35 10.7628C195.719 11.473 195.904 12.2732 195.904 13.1634C195.904 14.0582 195.717 14.8632 195.343 15.5781C194.974 16.2884 194.415 16.8518 193.667 17.2685C192.924 17.6804 191.988 17.8864 190.862 17.8864H187.296V16.0256H190.663C191.378 16.0256 191.958 15.9025 192.403 15.6562C192.848 15.4053 193.174 15.0644 193.383 14.6335C193.591 14.2027 193.695 13.7126 193.695 13.1634C193.695 12.6141 193.591 12.1264 193.383 11.7003C193.174 11.2741 192.845 10.9403 192.396 10.6989C191.951 10.4574 191.363 10.3366 190.634 10.3366H187.879V23H185.684Z" fill="white"/>
</svg>
